0
SECTION
2
ENTITIES
0
LINE
8
OUTLINE
10
14.0000
20
0.0000
11
64.0000
21
0.0000
0
LINE
8
OUTLINE
10
78.0000
20
14.0000
11
78.0000
21
100.0000
0
LINE
8
OUTLINE
10
64.0000
20
114.0000
11
14.0000
21
114.0000
0
LINE
8
OUTLINE
10
0.0000
20
100.0000
11
0.0000
21
14.0000
0
ARC
8
OUTLINE
10
64.0000
20
14.0000
40
14.0000
50
270.0000
51
360.0000
0
ARC
8
OUTLINE
10
64.0000
20
100.0000
40
14.0000
50
0.0000
51
90.0000
0
ARC
8
OUTLINE
10
14.0000
20
100.0000
40
14.0000
50
90.0000
51
180.0000
0
ARC
8
OUTLINE
10
14.0000
20
14.0000
40
14.0000
50
180.0000
51
270.0000
0
CIRCLE
8
CENTRES
10
16.0000
20
44.0000
40
1.0000
0
CIRCLE
8
APERTURES
10
16.0000
20
44.0000
40
1.5000
0
CIRCLE
8
CENTRES
10
62.0000
20
44.0000
40
1.0000
0
CIRCLE
8
APERTURES
10
62.0000
20
44.0000
40
1.5000
0
CIRCLE
8
CENTRES
10
39.0000
20
15.0000
40
1.0000
0
CIRCLE
8
APERTURES
10
39.0000
20
15.0000
40
1.5000
0
CIRCLE
8
CENTRES
10
39.0000
20
33.0000
40
1.0000
0
CIRCLE
8
APERTURES
10
39.0000
20
33.0000
40
5.0000
0
CIRCLE
8
CENTRES
10
39.0000
20
53.0000
40
1.0000
0
CIRCLE
8
APERTURES
10
39.0000
20
53.0000
40
2.5000
0
CIRCLE
8
CENTRES
10
62.0000
20
15.0000
40
1.0000
0
CIRCLE
8
APERTURES
10
62.0000
20
15.0000
40
6.2500
0
CIRCLE
8
CENTRES
10
39.0000
20
102.0000
40
1.0000
0
CIRCLE
8
APERTURES
10
39.0000
20
102.0000
40
2.0000
0
LINE
8
FOLDS
10
-4.0000
20
62.0000
11
-1.0000
21
62.0000
0
LINE
8
FOLDS
10
79.0000
20
62.0000
11
82.0000
21
62.0000
0
LINE
8
FOLDS
10
-4.0000
20
86.0000
11
-1.0000
21
86.0000
0
LINE
8
FOLDS
10
79.0000
20
86.0000
11
82.0000
21
86.0000
0
ENDSEC
0
EOF
